<svg width="25" height="18" viewBox="0 0 25 18" fill="none" xmlns="http://www.w3.org/2000/svg">
<path d="M5.92539 1L1.88484 17H0.641602L4.68214 1H5.92539Z" fill="black"/>
<path d="M16.1821 2.66667H18.047L23.6416 9L17.7362 15.3333H16.1821L22.0875 9L16.1821 2.66667Z" fill="black"/>
<path d="M12.1416 2.66667L6.2362 9L12.1416 15.3333H13.6957L7.79025 9L13.6957 2.66667H12.1416Z" fill="black"/>
<path d="M5.92539 1L1.88484 17H0.641602L4.68214 1H5.92539Z" stroke="#111111"/>
<path d="M16.1821 2.66667H18.047L23.6416 9L17.7362 15.3333H16.1821L22.0875 9L16.1821 2.66667Z" stroke="#111111"/>
<path d="M12.1416 2.66667L6.2362 9L12.1416 15.3333H13.6957L7.79025 9L13.6957 2.66667H12.1416Z" stroke="#111111"/>
</svg>
