<svg width="22" height="22" viewBox="0 0 22 22" fill="none" xmlns="http://www.w3.org/2000/svg">
<path d="M0.700195 4.7002C0.700195 3.1602 0.700195 2.3902 1.0472 1.8242C1.2412 1.5072 1.5072 1.2412 1.8242 1.0472C2.3892 0.700195 3.1602 0.700195 4.7002 0.700195C6.2402 0.700195 7.0102 0.700195 7.5762 1.0472C7.8932 1.2412 8.15919 1.5072 8.3532 1.8242C8.7002 2.3892 8.7002 3.1602 8.7002 4.7002C8.7002 6.2402 8.7002 7.0102 8.3532 7.5762C8.15919 7.8932 7.8932 8.15919 7.5762 8.3532C7.0112 8.7002 6.2402 8.7002 4.7002 8.7002C3.1602 8.7002 2.3902 8.7002 1.8242 8.3532C1.50743 8.15924 1.24115 7.89296 1.0472 7.5762C0.700195 7.0112 0.700195 6.2402 0.700195 4.7002Z" fill="#1E1E1E"/>
<path d="M12.7002 4.7002C12.7002 3.1602 12.7002 2.3902 13.0472 1.8242C13.2412 1.5072 13.5072 1.2412 13.8242 1.0472C14.3892 0.700195 15.1602 0.700195 16.7002 0.700195C18.2402 0.700195 19.0102 0.700195 19.5772 1.0472C19.8932 1.2412 20.1592 1.5072 20.3532 1.8242C20.7002 2.3892 20.7002 3.1602 20.7002 4.7002C20.7002 6.2402 20.7002 7.0102 20.3532 7.5762C20.1592 7.8932 19.8932 8.15919 19.5772 8.3532C19.0102 8.7002 18.2402 8.7002 16.7002 8.7002C15.1602 8.7002 14.3902 8.7002 13.8242 8.3532C13.5074 8.15924 13.2412 7.89296 13.0472 7.5762C12.7002 7.0112 12.7002 6.2402 12.7002 4.7002Z" fill="#1E1E1E"/>
<path d="M12.7002 16.7002C12.7002 15.1602 12.7002 14.3902 13.0472 13.8242C13.2412 13.5072 13.5072 13.2412 13.8242 13.0472C14.3892 12.7002 15.1602 12.7002 16.7002 12.7002C18.2402 12.7002 19.0102 12.7002 19.5772 13.0472C19.8932 13.2412 20.1592 13.5072 20.3532 13.8242C20.7002 14.3892 20.7002 15.1602 20.7002 16.7002C20.7002 18.2402 20.7002 19.0102 20.3532 19.5772C20.1591 19.8932 19.8932 20.1591 19.5772 20.3532C19.0102 20.7002 18.2402 20.7002 16.7002 20.7002C15.1602 20.7002 14.3902 20.7002 13.8242 20.3532C13.5075 20.1595 13.2413 19.8936 13.0472 19.5772C12.7002 19.0102 12.7002 18.2402 12.7002 16.7002Z" fill="#1E1E1E"/>
<path d="M0.700195 16.7002C0.700195 15.1602 0.700195 14.3902 1.0472 13.8242C1.2412 13.5072 1.5072 13.2412 1.8242 13.0472C2.3892 12.7002 3.1602 12.7002 4.7002 12.7002C6.2402 12.7002 7.0102 12.7002 7.5762 13.0472C7.8932 13.2412 8.15919 13.5072 8.3532 13.8242C8.7002 14.3892 8.7002 15.1602 8.7002 16.7002C8.7002 18.2402 8.7002 19.0102 8.3532 19.5772C8.15919 19.8932 7.8932 20.1592 7.5762 20.3532C7.0112 20.7002 6.2402 20.7002 4.7002 20.7002C3.1602 20.7002 2.3902 20.7002 1.8242 20.3532C1.50755 20.1595 1.24128 19.8936 1.0472 19.5772C0.700195 19.0102 0.700195 18.2402 0.700195 16.7002Z" fill="#1E1E1E"/>
<path d="M0.700195 4.7002C0.700195 3.1602 0.700195 2.3902 1.0472 1.8242C1.2412 1.5072 1.5072 1.2412 1.8242 1.0472C2.3892 0.700195 3.1602 0.700195 4.7002 0.700195C6.2402 0.700195 7.0102 0.700195 7.5762 1.0472C7.8932 1.2412 8.15919 1.5072 8.3532 1.8242C8.7002 2.3892 8.7002 3.1602 8.7002 4.7002C8.7002 6.2402 8.7002 7.0102 8.3532 7.5762C8.15919 7.8932 7.8932 8.15919 7.5762 8.3532C7.0112 8.7002 6.2402 8.7002 4.7002 8.7002C3.1602 8.7002 2.3902 8.7002 1.8242 8.3532C1.50743 8.15924 1.24115 7.89296 1.0472 7.5762C0.700195 7.0112 0.700195 6.2402 0.700195 4.7002Z" stroke="#1E1E1E" stroke-width="1.4" stroke-linecap="round" stroke-linejoin="round"/>
<path d="M12.7002 4.7002C12.7002 3.1602 12.7002 2.3902 13.0472 1.8242C13.2412 1.5072 13.5072 1.2412 13.8242 1.0472C14.3892 0.700195 15.1602 0.700195 16.7002 0.700195C18.2402 0.700195 19.0102 0.700195 19.5772 1.0472C19.8932 1.2412 20.1592 1.5072 20.3532 1.8242C20.7002 2.3892 20.7002 3.1602 20.7002 4.7002C20.7002 6.2402 20.7002 7.0102 20.3532 7.5762C20.1592 7.8932 19.8932 8.15919 19.5772 8.3532C19.0102 8.7002 18.2402 8.7002 16.7002 8.7002C15.1602 8.7002 14.3902 8.7002 13.8242 8.3532C13.5074 8.15924 13.2412 7.89296 13.0472 7.5762C12.7002 7.0112 12.7002 6.2402 12.7002 4.7002Z" stroke="#1E1E1E" stroke-width="1.4" stroke-linecap="round" stroke-linejoin="round"/>
<path d="M12.7002 16.7002C12.7002 15.1602 12.7002 14.3902 13.0472 13.8242C13.2412 13.5072 13.5072 13.2412 13.8242 13.0472C14.3892 12.7002 15.1602 12.7002 16.7002 12.7002C18.2402 12.7002 19.0102 12.7002 19.5772 13.0472C19.8932 13.2412 20.1592 13.5072 20.3532 13.8242C20.7002 14.3892 20.7002 15.1602 20.7002 16.7002C20.7002 18.2402 20.7002 19.0102 20.3532 19.5772C20.1591 19.8932 19.8932 20.1591 19.5772 20.3532C19.0102 20.7002 18.2402 20.7002 16.7002 20.7002C15.1602 20.7002 14.3902 20.7002 13.8242 20.3532C13.5075 20.1595 13.2413 19.8936 13.0472 19.5772C12.7002 19.0102 12.7002 18.2402 12.7002 16.7002Z" stroke="#1E1E1E" stroke-width="1.4" stroke-linecap="round" stroke-linejoin="round"/>
<path d="M0.700195 16.7002C0.700195 15.1602 0.700195 14.3902 1.0472 13.8242C1.2412 13.5072 1.5072 13.2412 1.8242 13.0472C2.3892 12.7002 3.1602 12.7002 4.7002 12.7002C6.2402 12.7002 7.0102 12.7002 7.5762 13.0472C7.8932 13.2412 8.15919 13.5072 8.3532 13.8242C8.7002 14.3892 8.7002 15.1602 8.7002 16.7002C8.7002 18.2402 8.7002 19.0102 8.3532 19.5772C8.15919 19.8932 7.8932 20.1592 7.5762 20.3532C7.0112 20.7002 6.2402 20.7002 4.7002 20.7002C3.1602 20.7002 2.3902 20.7002 1.8242 20.3532C1.50755 20.1595 1.24128 19.8936 1.0472 19.5772C0.700195 19.0102 0.700195 18.2402 0.700195 16.7002Z" stroke="#1E1E1E" stroke-width="1.4" stroke-linecap="round" stroke-linejoin="round"/>
</svg>
