<svg width="14" height="16" viewBox="0 0 14 16" fill="none" xmlns="http://www.w3.org/2000/svg">
<path d="M0.833344 3.94444H12.8333M5.33334 7.05556V11.7222M8.33334 7.05556V11.7222M1.58334 3.94444L2.33334 13.2778C2.33334 13.6903 2.49138 14.086 2.77268 14.3777C3.05399 14.6694 3.43552 14.8333 3.83334 14.8333H9.83334C10.2312 14.8333 10.6127 14.6694 10.894 14.3777C11.1753 14.086 11.3333 13.6903 11.3333 13.2778L12.0833 3.94444M4.58334 3.94444V1.61111C4.58334 1.40483 4.66236 1.207 4.80301 1.06114C4.94367 0.915277 5.13443 0.833333 5.33334 0.833333H8.33334C8.53226 0.833333 8.72302 0.915277 8.86367 1.06114C9.00433 1.207 9.08334 1.40483 9.08334 1.61111V3.94444" stroke="#1E1E1E" stroke-width="1.66667" stroke-linecap="round" stroke-linejoin="round"/>
</svg>
