<svg width="15" height="15" viewBox="0 0 15 15" fill="none" xmlns="http://www.w3.org/2000/svg">
<path d="M14.4 3.77281C14.4005 3.67805 14.3824 3.58412 14.3465 3.49639C14.3107 3.40867 14.2579 3.32888 14.1912 3.26161L11.1384 0.208812C11.0711 0.142081 10.9913 0.0892871 10.9036 0.0534567C10.8159 0.0176262 10.722 -0.000535808 10.6272 1.20343e-05C10.5324 -0.000535808 10.4385 0.0176262 10.3508 0.0534567C10.2631 0.0892871 10.1833 0.142081 10.116 0.208812L8.0784 2.24641L0.208812 10.116C0.142081 10.1833 0.0892871 10.2631 0.0534567 10.3508C0.0176262 10.4385 -0.000535808 10.5324 1.20343e-05 10.6272V13.68C1.20343e-05 13.8709 0.0758689 14.0541 0.210895 14.1891C0.345921 14.3241 0.529055 14.4 0.720011 14.4H3.77281C3.87355 14.4055 3.97433 14.3897 4.0686 14.3537C4.16286 14.3178 4.24852 14.2624 4.32001 14.1912L12.1464 6.3216L14.1912 4.32C14.2568 4.25014 14.3103 4.16984 14.3496 4.08241C14.3565 4.02501 14.3565 3.967 14.3496 3.90961C14.353 3.87609 14.353 3.84232 14.3496 3.80881L14.4 3.77281ZM3.47761 12.96H1.44001V10.9224L8.5896 3.77281L10.6272 5.8104L3.47761 12.96ZM11.6424 4.7952L9.6048 2.75761L10.6272 1.74241L12.6576 3.77281L11.6424 4.7952Z" fill="#1E1E1E"/>
</svg>
