<svg width="16" height="16" viewBox="0 0 16 16" fill="none" xmlns="http://www.w3.org/2000/svg">
<path d="M8.00071 11.6511C11.7957 11.6511 15.0724 9.18692 15.9814 5.73399C16.0213 5.58305 15.9964 5.42326 15.9123 5.28976C15.8282 5.15626 15.6918 5.05999 15.5331 5.02212C15.3744 4.98426 15.2063 5.00791 15.0659 5.08786C14.9255 5.16781 14.8243 5.29752 14.7845 5.44846C14.4036 6.88512 13.5292 8.15976 12.3 9.07026C11.0708 9.98076 9.55715 10.475 7.99901 10.4747C6.44088 10.4743 4.92746 9.97935 3.69874 9.06828C2.47001 8.1572 1.59629 6.88217 1.21614 5.44533C1.19653 5.37054 1.16162 5.30016 1.11341 5.2382C1.06519 5.17624 1.00462 5.12392 0.935138 5.08422C0.86566 5.04453 0.788638 5.01823 0.708472 5.00684C0.628306 4.99544 0.546565 4.99918 0.467915 5.01782C0.389266 5.03647 0.315249 5.06966 0.25009 5.1155C0.184931 5.16135 0.129907 5.21895 0.088159 5.28502C0.0464107 5.35108 0.018756 5.42432 0.00677395 5.50055C-0.00520812 5.57678 -0.00128308 5.65451 0.0183252 5.72929C0.464083 7.42131 1.49177 8.92313 2.93807 9.99608C4.38438 11.069 6.16631 11.6515 8.00071 11.6511Z" fill="#1E1E1E"/>
</svg>
