<svg width="16" height="16" viewBox="0 0 16 16" fill="none" xmlns="http://www.w3.org/2000/svg">
<path d="M8.00071 6.74185C8.87346 6.74185 9.71046 7.07152 10.3276 7.65834C10.9447 8.24515 11.2914 9.04104 11.2914 9.87093C11.2914 10.7008 10.9447 11.4967 10.3276 12.0835C9.71046 12.6703 8.87346 13 8.00071 13C7.12797 13 6.29097 12.6703 5.67385 12.0835C5.05673 11.4967 4.71003 10.7008 4.71003 9.87093C4.71003 9.04104 5.05673 8.24515 5.67385 7.65834C6.29097 7.07152 7.12797 6.74185 8.00071 6.74185ZM8.00071 4C11.7957 4 15.0724 6.46415 15.9815 9.91708C16.0213 10.068 15.9964 10.2278 15.9123 10.3613C15.8282 10.4948 15.6918 10.5911 15.5331 10.6289C15.3744 10.6668 15.2063 10.6432 15.0659 10.5632C14.9255 10.4833 14.8243 10.3535 14.7845 10.2026C14.4036 8.76595 13.5292 7.49131 12.3 6.58081C11.0708 5.6703 9.55715 5.17605 7.99902 5.1764C6.44089 5.17676 4.92747 5.67172 3.69874 6.58279C2.47001 7.49386 1.5963 8.7689 1.21614 10.2057C1.19653 10.2805 1.16163 10.3509 1.11341 10.4129C1.0652 10.4748 1.00462 10.5271 0.935146 10.5668C0.865667 10.6065 0.788646 10.6328 0.708479 10.6442C0.628313 10.6556 0.546572 10.6519 0.467922 10.6332C0.389273 10.6146 0.315256 10.5814 0.250097 10.5356C0.184939 10.4897 0.129914 10.4321 0.0881662 10.3661C0.0464179 10.3 0.0187632 10.2267 0.00678115 10.1505C-0.00520092 10.0743 -0.00127588 9.99656 0.0183324 9.92177C0.46409 8.22975 1.49178 6.72794 2.93808 5.65499C4.38438 4.58204 6.16632 3.99952 8.00071 4Z" fill="#1E1E1E"/>
</svg>
