<svg width="22" height="21" viewBox="0 0 22 21" fill="none" xmlns="http://www.w3.org/2000/svg">
<path fill-rule="evenodd" clip-rule="evenodd" d="M11.0091 0C4.92135 0 0 4.81248 0 10.7662C0 15.5253 3.15328 19.5538 7.52772 20.9796C8.07463 21.0868 8.27497 20.7479 8.27497 20.4629C8.27497 20.2133 8.25694 19.3578 8.25694 18.4664C5.19447 19.1082 4.55674 17.183 4.55674 17.183C4.06458 15.9352 3.33536 15.6145 3.33536 15.6145C2.33302 14.955 3.40837 14.955 3.40837 14.955C4.52024 15.0263 5.10366 16.0601 5.10366 16.0601C6.08775 17.6999 7.67352 17.2366 8.31147 16.9513C8.40251 16.2561 8.69434 15.7749 9.00419 15.5076C6.56165 15.258 3.9918 14.3311 3.9918 10.1957C3.9918 9.01924 4.42897 8.05675 5.12169 7.30819C5.01239 7.04088 4.62953 5.93554 5.23121 4.45614C5.23121 4.45614 6.16076 4.17089 8.25671 5.56126C9.15407 5.32559 10.0795 5.20571 11.0091 5.2047C11.9387 5.2047 12.8862 5.3296 13.7613 5.56126C15.8574 4.17089 16.787 4.45614 16.787 4.45614C17.3887 5.93554 17.0056 7.04088 16.8963 7.30819C17.6073 8.05675 18.0264 9.01924 18.0264 10.1957C18.0264 14.3311 15.4565 15.24 12.9958 15.5076C13.3969 15.8462 13.743 16.4878 13.743 17.5039C13.743 18.9476 13.725 20.1063 13.725 20.4627C13.725 20.7479 13.9255 21.0868 14.4722 20.9798C18.8467 19.5535 22 15.5253 22 10.7662C22.018 4.81248 17.0786 0 11.0091 0Z" fill="#111111"/>
</svg>
