<svg width="22" height="22" viewBox="0 0 22 22" fill="none" xmlns="http://www.w3.org/2000/svg">
<g clip-path="url(#clip0_733_8502)">
<path d="M21.9898 12.1366V19.6716C21.9677 20.5478 21.5271 21.0318 20.6174 21.1047C19.5734 21.1877 18.5242 21.2405 17.4763 21.3008C15.3648 21.4265 13.2529 21.5497 11.1406 21.6704C9.2703 21.7773 7.39997 21.8716 5.53225 21.9935C4.70592 22.045 4.05554 21.7936 3.59806 21.1098C3.46251 20.9074 3.28916 20.7251 3.13536 20.5315C2.35335 19.5585 1.57784 18.583 0.791916 17.615C0.263705 16.9903 -0.0167437 16.2047 0.000773659 15.3988C0.0268409 11.1121 0.0112006 6.82786 0.0138073 2.54241C0.0138073 2.38067 0.0268409 2.21976 0.0529082 2.05969C0.172818 1.43114 0.57686 1.04144 1.23636 0.981097C2.31555 0.883043 3.41168 0.81516 4.49999 0.735963L9.70041 0.366375C11.3661 0.249465 13.0318 0.137583 14.6975 0.0106164C15.5324 -0.05468 16.3625 0.182911 17.0253 0.676879C18.4929 1.70393 19.9839 2.69704 21.4724 3.69894C21.6447 3.80555 21.7842 3.95468 21.8766 4.13086C21.969 4.30703 22.0108 4.50384 21.9976 4.70085C21.9833 7.17859 21.9898 9.65759 21.9898 12.1366ZM20.4753 5.81716C20.4753 5.19866 20.2498 4.98496 19.6281 5.02015L14.2192 5.31683L7.58505 5.69145C6.80564 5.73419 6.02622 5.78028 5.24681 5.82973C4.83365 5.85738 4.64596 6.03338 4.5847 6.42433C4.56906 6.53747 4.56255 6.65061 4.56515 6.76375V19.1587C4.56515 20.1229 4.83104 20.3643 5.83463 20.3077C6.83822 20.2512 7.84051 20.1883 8.85452 20.1317L19.5929 19.5371C20.169 19.5057 20.431 19.2606 20.4766 18.7087C20.4844 18.6119 20.4766 18.5151 20.4766 18.412L20.4753 5.81716ZM18.85 3.53929L18.8852 3.47518C18.8065 3.38194 18.7192 3.29569 18.6245 3.21748C17.9129 2.71589 17.1934 2.22437 16.4831 1.73033C16.0178 1.38714 15.4404 1.21492 14.8552 1.24634C13.69 1.31423 12.5274 1.40348 11.3622 1.48519L3.87567 2.0094C3.33869 2.04712 2.79519 2.08734 2.27123 2.14768C2.2126 2.15899 2.15744 2.18311 2.10999 2.2182C2.06254 2.25329 2.02407 2.2984 1.99753 2.35008C1.97537 2.41167 2.08094 2.54996 2.16305 2.61407C2.74957 3.07039 3.34651 3.51918 3.93824 3.96922C4.25756 4.22567 4.66551 4.35892 5.07998 4.34258C5.282 4.33378 5.48403 4.34258 5.68474 4.32498L11.1172 4.00316L18.3352 3.59335C18.5072 3.57407 18.6788 3.55605 18.85 3.53929Z" fill="#111111"/>
<path d="M15.5968 14.3793V8.52117C15.2684 8.48346 14.9543 8.43946 14.6376 8.41684C14.4642 8.40426 14.4238 8.32884 14.442 8.18176C14.4587 8.02221 14.5314 7.87294 14.648 7.75865C14.7646 7.64435 14.9182 7.57187 15.0833 7.55321C16.1299 7.47778 17.1765 7.42624 18.2179 7.3659C18.373 7.86497 18.2179 8.1101 17.7226 8.20439C17.1765 8.31375 17.1765 8.31375 17.1765 8.84802V17.4529C17.1765 17.6527 17.1218 17.7747 16.9263 17.8338C16.5818 17.9584 16.2307 18.0654 15.8744 18.1543C15.3023 18.27 14.7953 18.1166 14.4551 17.6402C13.9814 16.9819 13.5187 16.3164 13.067 15.6439C12.0191 14.0801 10.9842 12.5099 9.94283 10.9423C9.92198 10.9097 9.89331 10.8782 9.83465 10.8003C9.82162 10.9084 9.80989 10.97 9.80989 11.0341V16.8922C9.80989 17.0644 9.86724 17.1348 10.0393 17.1662C10.4251 17.2392 10.8096 17.3284 11.1862 17.4101C11.1796 17.5925 11.1046 17.7664 10.9752 17.8996C10.8458 18.0327 10.6707 18.1161 10.4824 18.1342C10.1664 18.1754 9.8484 18.2006 9.52967 18.2096C8.75807 18.2549 7.98648 18.2901 7.2162 18.3429C6.99071 18.358 6.9451 18.2675 6.9842 18.0902C6.9962 17.9839 7.04216 17.8839 7.11572 17.804C7.18928 17.724 7.28679 17.6681 7.39476 17.6439C7.63718 17.5874 7.877 17.5132 8.11682 17.4478V9.03784L7.03633 8.94482C7.00025 8.83632 6.99049 8.72128 7.00778 8.60857C7.02508 8.49586 7.06898 8.38848 7.1361 8.29471C7.20322 8.20095 7.29177 8.1233 7.39491 8.06775C7.49806 8.01221 7.61305 7.98025 7.73102 7.97434C8.67596 7.90143 9.62742 7.87377 10.5698 7.77069C10.9725 7.72795 11.1602 7.87125 11.3622 8.1717C12.6955 10.1529 14.0471 12.1265 15.3935 14.1014L15.5968 14.3793Z" fill="#111111"/>
</g>
<defs>
<clipPath id="clip0_733_8502">
<rect width="22" height="22" fill="white"/>
</clipPath>
</defs>
</svg>
