<svg width="22" height="22" viewBox="0 0 22 22" fill="none" xmlns="http://www.w3.org/2000/svg">
<g clip-path="url(#clip0_1609_5000)">
<path d="M1.86319 1.29653H17.3926V17.7965H7.9024C7.67359 17.7965 7.45414 17.8793 7.29235 18.0267C7.13055 18.174 7.03966 18.3739 7.03966 18.5822H7.01377C6.93181 19.1723 6.59362 19.7121 6.10789 20.1537H4.45142C3.76498 20.1537 3.10665 19.9053 2.62126 19.4633C2.13587 19.0212 1.86319 18.4217 1.86319 17.7965V1.29653ZM19.1181 17.7965V0.510812C19.1181 0.302428 19.0272 0.102578 18.8654 -0.044772C18.7036 -0.192122 18.4842 -0.274902 18.2553 -0.274902H1.00044C0.771626 -0.274902 0.552184 -0.192122 0.390388 -0.044772C0.228591 0.102578 0.137695 0.302428 0.137695 0.510812V17.7965C0.137506 18.605 0.411236 19.3939 0.921537 20.0555C1.43184 20.7171 2.15385 21.2192 2.98907 21.4933C3.30052 21.6347 3.78711 21.7251 4.02005 21.7251H19.1181V21.7015C19.9522 21.6058 20.7193 21.2361 21.2753 20.6617C21.8313 20.0874 22.138 19.3479 22.1377 18.5822C22.1377 18.3739 22.0468 18.174 21.885 18.0267C21.7232 17.8793 21.5038 17.7965 21.275 17.7965H19.1181Z" fill="#1E1E1E"/>
<path d="M4.02005 4.94224C4.02005 4.66452 4.26726 4.43938 4.57221 4.43938H14.511C14.816 4.43938 15.0632 4.66452 15.0632 4.94224V5.19367C15.0632 5.47139 14.816 5.69653 14.511 5.69653H4.57221C4.26726 5.69653 4.02005 5.47139 4.02005 5.19367V4.94224Z" fill="#1E1E1E"/>
<path d="M4.02005 7.45653C4.02005 7.17881 4.26726 6.95367 4.57221 6.95367H14.511C14.816 6.95367 15.0632 7.17881 15.0632 7.45653V7.70796C15.0632 7.98568 14.816 8.21081 14.511 8.21081H4.57221C4.26726 8.21081 4.02005 7.98568 4.02005 7.70796V7.45653Z" fill="#1E1E1E"/>
<path d="M4.02005 12.4851C4.02005 12.2074 4.26726 11.9822 4.57221 11.9822H10.3699C10.6748 11.9822 10.922 12.2074 10.922 12.4851V12.7365C10.922 13.0142 10.6748 13.2394 10.3699 13.2394H4.57221C4.26726 13.2394 4.02005 13.0142 4.02005 12.7365V12.4851Z" fill="#1E1E1E"/>
<path d="M4.02005 9.97081C4.02005 9.69309 4.26726 9.46796 4.57221 9.46796H14.511C14.816 9.46796 15.0632 9.69309 15.0632 9.97081V10.2222C15.0632 10.5 14.816 10.7251 14.511 10.7251H4.57221C4.26726 10.7251 4.02005 10.5 4.02005 10.2222V9.97081Z" fill="#1E1E1E"/>
</g>
<defs>
<clipPath id="clip0_1609_5000">
<rect width="22" height="22" fill="white"/>
</clipPath>
</defs>
</svg>
